<svg xmlns="http://www.w3.org/2000/svg" viewBox="0 0 1024 1024"><path d="M274.4,455.3c-10-5.7-21.5-8.6-34.5-8.6s-24.2,2.9-34.3,8.6a60.4,60.4,0,0,0-23.7,23.6q-8.7,15.2-8.7,34.8c0,13,2.8,24.5,8.3,34.6a61.1,61.1,0,0,0,22.9,23.6c9.8,5.7,21,8.5,33.6,8.5s21.2-2.6,29.9-7.8A54.7,54.7,0,0,0,288.4,551v10.9q0,15.9-6.3,27.6a45.9,45.9,0,0,1-41.4,24.8,58.2,58.2,0,0,1-25.4-5.3,51.6,51.6,0,0,1-17.8-13.9,9.8,9.8,0,0,0-13-2.2,7.6,7.6,0,0,0-3.5,5.5,7.9,7.9,0,0,0,2.3,6.3A66.3,66.3,0,0,0,207.1,624c9.6,4.7,20.7,7.1,33.3,7.1s24.2-3,34.1-9A65.1,65.1,0,0,0,298,597.6c5.8-10.3,8.7-22,8.7-34.9v-49c-.2-13.1-3.1-24.7-8.8-34.8A60.6,60.6,0,0,0,274.4,455.3Zm7.8,84.3A46.4,46.4,0,0,1,265,557.3a49.2,49.2,0,0,1-25.1,6.3,50.1,50.1,0,0,1-25.2-6.3,45.7,45.7,0,0,1-17.2-17.7c-4.2-7.5-6.3-16.1-6.3-25.9a52.7,52.7,0,0,1,6.3-26,44.7,44.7,0,0,1,17.2-17.8,50.2,50.2,0,0,1,25.2-6.4,49.3,49.3,0,0,1,25.1,6.4,45.3,45.3,0,0,1,17.2,17.8,53.7,53.7,0,0,1,6.2,26A53.1,53.1,0,0,1,282.2,539.6Z"/><path d="M430.4,455c-9.1-5.5-19.7-8.3-31.8-8.3s-23.2,2.9-32.7,8.7A60.8,60.8,0,0,0,343.7,479c-5.3,10-8,21.6-8,34.7s2.8,24.5,8.5,34.6a61.9,61.9,0,0,0,23.5,23.6c10,5.7,21.5,8.5,34.5,8.5a70.4,70.4,0,0,0,23.5-4.4c8.2-3,14.9-6.7,20.2-11.2a6.8,6.8,0,0,0,2.7-5.7,8.8,8.8,0,0,0-3.2-6.3,8.2,8.2,0,0,0-5.8-1.8,10.4,10.4,0,0,0-6,2.3,43,43,0,0,1-14,7.6,54,54,0,0,1-17.4,3,49.8,49.8,0,0,1-25.5-6.5,48,48,0,0,1-17.4-17.8,50.3,50.3,0,0,1-6-19.9h96.9a8.8,8.8,0,0,0,6.2-2.3,7.9,7.9,0,0,0,2.4-6.1c0-12.5-2.5-23.6-7.4-33.4A56.7,56.7,0,0,0,430.4,455Zm-55.8,14.8a44.5,44.5,0,0,1,24-6.5c8.9,0,16.7,2.1,23.1,6.2a41.5,41.5,0,0,1,15,17.3,51.1,51.1,0,0,1,4.8,17.5H353.6a55.4,55.4,0,0,1,5-16.6A43.4,43.4,0,0,1,374.6,469.8Z"/><path d="M579.2,455.4q-15-8.7-34.2-8.7c-12.8,0-24.3,2.9-34.3,8.7a63,63,0,0,0-23.8,23.7c-5.8,10.1-8.6,21.6-8.6,34.6s2.8,24.2,8.6,34.3a63.2,63.2,0,0,0,23.8,23.8c10,5.7,21.5,8.6,34.3,8.6s24.2-2.9,34.2-8.6A63.7,63.7,0,0,0,602.9,548c5.9-10.1,8.8-21.5,8.8-34.3s-3.1-24.5-8.9-34.6A62.5,62.5,0,0,0,579.2,455.4Zm8,84a45.3,45.3,0,0,1-17.3,17.7,47.2,47.2,0,0,1-24.9,6.5,47.5,47.5,0,0,1-42.4-24.2,51.8,51.8,0,0,1-6.3-25.7,52.4,52.4,0,0,1,6.3-25.8A47.5,47.5,0,0,1,520,470a48.8,48.8,0,0,1,25-6.5,48.2,48.2,0,0,1,24.9,6.5,45.1,45.1,0,0,1,17.3,17.9,52.4,52.4,0,0,1,6.3,25.8A51.8,51.8,0,0,1,587.2,539.4Z"/><path d="M669.9,400.3a13.6,13.6,0,0,0-9-3.5,14,14,0,0,0-9.3,3.5,12.1,12.1,0,0,0-3.9,9.5,12.7,12.7,0,0,0,3.8,9.3,12.4,12.4,0,0,0,9.1,3.9,12.8,12.8,0,0,0,9.4-3.9,12.3,12.3,0,0,0,3.8-9.3A12.1,12.1,0,0,0,669.9,400.3Z"/><path d="M660.9,447.9a8.8,8.8,0,0,0-9.4,9.4V569.9a9.6,9.6,0,0,0,2.5,6.8,9.3,9.3,0,0,0,6.9,2.5,8.9,8.9,0,0,0,6.6-2.5,9.2,9.2,0,0,0,2.5-6.8V457.3c0-2.9-.8-5.2-2.5-6.8A9,9,0,0,0,660.9,447.9Z"/><path d="M840.9,394.3a9.3,9.3,0,0,0-6.7-2.5,9.1,9.1,0,0,0-6.7,2.5,9,9,0,0,0-2.7,6.8v70.6a57.5,57.5,0,0,0-20.9-18.1,60.6,60.6,0,0,0-29-6.9,63.3,63.3,0,0,0-56.3,32.7c-5.7,10.1-8.5,21.4-8.5,34.1s2.9,24.2,8.8,34.3a65,65,0,0,0,23.8,23.9,70.8,70.8,0,0,0,67.8.1,64.4,64.4,0,0,0,23.8-23.7,69.3,69.3,0,0,0,9.2-33.7V401.1A8.9,8.9,0,0,0,840.9,394.3Zm-22,144.8a48.4,48.4,0,0,1-84.3,0,50.5,50.5,0,0,1-6.5-25.6,51,51,0,0,1,6.5-25.6A47,47,0,0,1,752.1,470a50.6,50.6,0,0,1,49.6,0,47,47,0,0,1,17.2,17.9,50.9,50.9,0,0,1,6.4,25.6A50.4,50.4,0,0,1,818.9,539.1Z"/></svg>